<?xml version="1.0" ?><!DOCTYPE svg  PUBLIC '-//W3C//DTD SVG 1.1//EN'  'http://www.w3.org/Graphics/SVG/1.1/DTD/svg11.dtd'><svg enable-background="new 0 0 64 64" height="64px" id="Layer_1" version="1.1" viewBox="0 0 64 64" width="64px" xml:space="preserve" xmlns="http://www.w3.org/2000/svg" xmlns:xlink="http://www.w3.org/1999/xlink"><g><path d="   M52,54c0,1.1-0.9,2-2,2H14c-1.1,0-2-0.9-2-2V10c0-1.1,0.9-2,2-2H50c1.1,0,2,0.9,2,2V54z" fill="none" stroke="#4D4D4D" stroke-linecap="round" stroke-linejoin="round" stroke-miterlimit="10" stroke-width="2"/><circle cx="32" cy="32" fill="none" r="3.2" stroke="#4D4D4D" stroke-linecap="round" stroke-linejoin="round" stroke-miterlimit="10" stroke-width="2"/><circle cx="47.5" cy="12.5" fill="none" r="1.3" stroke="#4D4D4D" stroke-linecap="round" stroke-linejoin="round" stroke-miterlimit="10"/><circle cx="16.5" cy="12.5" fill="none" r="1.3" stroke="#4D4D4D" stroke-linecap="round" stroke-linejoin="round" stroke-miterlimit="10"/><circle cx="47.5" cy="51.5" fill="none" r="1.3" stroke="#4D4D4D" stroke-linecap="round" stroke-linejoin="round" stroke-miterlimit="10"/><circle cx="16.5" cy="51.5" fill="none" r="1.3" stroke="#4D4D4D" stroke-linecap="round" stroke-linejoin="round" stroke-miterlimit="10"/><path d="   M42,40.8c2.1-2.3,3.3-5.4,3.3-8.8c0-7.4-6-13.3-13.3-13.3s-13.3,6-13.3,13.3s6,13.3,13.3,13.3c1.5,0,2.9-0.2,4.2-0.7" fill="none" stroke="#4D4D4D" stroke-linecap="round" stroke-linejoin="round" stroke-miterlimit="10" stroke-width="2"/><path d="M40,48   c-0.7-1-5.2-11.3-5.2-11.3s8.2,7.7,8.9,8.7c0.7,1,0.5,2.4-0.6,3.1C42.1,49.3,40.7,49,40,48z" fill="none" stroke="#4D4D4D" stroke-linecap="round" stroke-linejoin="round" stroke-miterlimit="10"/><line fill="none" stroke="#4D4D4D" stroke-linecap="round" stroke-linejoin="round" stroke-miterlimit="10" x1="24.3" x2="40.7" y1="12.5" y2="12.5"/></g></svg>