<?xml version="1.0" encoding="UTF-8" standalone="no"?>
<!-- Created with Inkscape (http://www.inkscape.org/) -->

<svg
   width="45mm"
   height="45mm"
   viewBox="0 0 45 45"
   version="1.1"
   id="svg5"
   inkscape:version="1.2.2 (b0a8486, 2022-12-01)"
   sodipodi:docname="theta_and_phi.svg"
   xml:space="preserve"
   xmlns:inkscape="http://www.inkscape.org/namespaces/inkscape"
   xmlns:sodipodi="http://sodipodi.sourceforge.net/DTD/sodipodi-0.dtd"
   xmlns="http://www.w3.org/2000/svg"
   xmlns:svg="http://www.w3.org/2000/svg"><sodipodi:namedview
     id="namedview7"
     pagecolor="#ffffff"
     bordercolor="#666666"
     borderopacity="1.0"
     inkscape:showpageshadow="2"
     inkscape:pageopacity="0.0"
     inkscape:pagecheckerboard="0"
     inkscape:deskcolor="#d1d1d1"
     inkscape:document-units="mm"
     showgrid="true"
     inkscape:zoom="4.6536375"
     inkscape:cx="68.333643"
     inkscape:cy="108.19493"
     inkscape:window-width="1973"
     inkscape:window-height="1353"
     inkscape:window-x="0"
     inkscape:window-y="25"
     inkscape:window-maximized="0"
     inkscape:current-layer="svg5"
     showguides="false"><inkscape:grid
       type="xygrid"
       id="grid2805"
       originx="0"
       originy="0" /></sodipodi:namedview><defs
     id="defs2"><inkscape:path-effect
       effect="spiro"
       id="path-effect5853"
       is_visible="true"
       lpeversion="1" /><inkscape:path-effect
       effect="spiro"
       id="path-effect5825"
       is_visible="true"
       lpeversion="1" /><inkscape:path-effect
       effect="spiro"
       id="path-effect5745"
       is_visible="true"
       lpeversion="1" /><inkscape:path-effect
       effect="spiro"
       id="path-effect5591"
       is_visible="true"
       lpeversion="1" /><inkscape:path-effect
       effect="spiro"
       id="path-effect5583"
       is_visible="true"
       lpeversion="1" /><inkscape:path-effect
       effect="spiro"
       id="path-effect5572"
       is_visible="true"
       lpeversion="1" /><inkscape:path-effect
       effect="spiro"
       id="path-effect5568"
       is_visible="true"
       lpeversion="1" /><inkscape:path-effect
       effect="spiro"
       id="path-effect5564"
       is_visible="true"
       lpeversion="1" /><inkscape:path-effect
       effect="spiro"
       id="path-effect2797"
       is_visible="true"
       lpeversion="1" /><inkscape:perspective
       sodipodi:type="inkscape:persp3d"
       inkscape:vp_x="0 : -39.000004 : 1"
       inkscape:vp_y="0 : 999.99998 : 0"
       inkscape:vp_z="105.00001 : -39.000004 : 1"
       inkscape:persp3d-origin="52.500003 : -63.66667 : 1"
       id="perspective1855" /><clipPath
       id="clip-0"><path
         clip-rule="nonzero"
         d="M 0.191406,0 H 19 V 16.839844 H 0.191406 Z m 0,0"
         id="path15099" /></clipPath><clipPath
       id="clip-0-4"><path
         clip-rule="nonzero"
         d="M 0,0 H 17 V 23.785156 H 0 Z m 0,0"
         id="path16578" /></clipPath><clipPath
       id="clip-0-7"><path
         clip-rule="nonzero"
         d="M 1,0 H 17 V 16.839844 H 1 Z m 0,0"
         id="path18057" /></clipPath><clipPath
       id="clip-0-40"><path
         clip-rule="nonzero"
         d="M 1,0 H 16 V 26.640625 H 1 Z m 0,0"
         id="path19536" /></clipPath><clipPath
       id="clip-0-5"><path
         clip-rule="nonzero"
         d="M 0.46875,0 H 20 V 33 H 0.46875 Z m 0,0"
         id="path21015" /></clipPath><clipPath
       id="clip-0-0"><path
         clip-rule="nonzero"
         d="M 0.460938,10 H 18 V 35.839844 H 0.460938 Z m 0,0"
         id="path22494" /></clipPath></defs><g
     inkscape:label="Layer 1"
     inkscape:groupmode="layer"
     id="layer1" /><g
     id="g383"
     transform="translate(-21.223743,-46.613537)"><path
       style="fill:#e3dedb;stroke:#000000;stroke-width:0.264583px;stroke-linecap:butt;stroke-linejoin:miter;stroke-opacity:1"
       d="m 34.395833,68.786227 -7.9375,13.240039 h 22.489583 l 7.937501,-13.240039 z"
       id="path2807" /><path
       style="fill:none;stroke:#000000;stroke-width:0.1;stroke-linecap:butt;stroke-linejoin:miter;stroke-dasharray:none;stroke-opacity:1"
       d="M 41.010416,75.406249 H 23.8125 Z"
       id="path3038" /><path
       style="fill:none;stroke:#000000;stroke-width:0.1;stroke-linecap:butt;stroke-linejoin:miter;stroke-dasharray:none;stroke-opacity:1"
       d="M 62.177083,75.40625 41.034498,75.40205 50.921467,59.565333"
       id="path3040"
       sodipodi:nodetypes="ccc" /><path
       style="fill:none;stroke:#000000;stroke-width:0.1;stroke-linecap:butt;stroke-linejoin:miter;stroke-dasharray:none;stroke-opacity:1"
       d="m 41.010416,75.406249 -7.9375,11.90625"
       id="path3042" /><path
       style="fill:none;stroke:#000000;stroke-width:0.1;stroke-linecap:butt;stroke-linejoin:miter;stroke-dasharray:none;stroke-opacity:1"
       d="M 41.010416,52.916666 V 75.406249"
       id="path3044" /><path
       style="fill:none;stroke:#000000;stroke-width:0.1;stroke-linecap:butt;stroke-linejoin:miter;stroke-dasharray:0.4, 0.8;stroke-dashoffset:0;stroke-opacity:1"
       d="M 48.692671,50.967596 V 72.481155"
       id="path3044-8" /><path
       style="fill:none;stroke:#000000;stroke-width:0.1;stroke-linecap:butt;stroke-linejoin:miter;stroke-dasharray:none;stroke-opacity:1"
       d="m 41.010416,60.854166 c 0.680367,-0.414976 1.514765,-0.570468 2.298936,-0.428412 0.797633,0.144494 1.535674,0.595874 2.027671,1.240106"
       id="path5743"
       inkscape:path-effect="#path-effect5745"
       inkscape:original-d="m 41.010416,60.854166 c 0,0 1.38475,-0.678376 2.298936,-0.428412 0.638548,0.174597 2.027671,1.240106 2.027671,1.240106"
       sodipodi:nodetypes="csc" /><path
       style="fill:#008000;stroke:#008000;stroke-width:0.265;stroke-linecap:butt;stroke-linejoin:miter;stroke-dasharray:none;stroke-dashoffset:0;stroke-opacity:1"
       d="m 41.342196,74.414139 7.34997,-23.487728"
       id="path3046" /><path
       style="fill:none;stroke:#000000;stroke-width:0.264583px;stroke-linecap:butt;stroke-linejoin:miter;stroke-opacity:1"
       d="M 41.010416,60.854166 Z"
       id="path5581"
       inkscape:path-effect="#path-effect5583"
       inkscape:original-d="m 41.010416,60.854166 c -2.64e-4,-11.906515 2.65e-4,23.812764 0,0 z" /><path
       style="fill:none;stroke:#000000;stroke-width:0;stroke-linecap:butt;stroke-linejoin:miter;stroke-dasharray:none;stroke-opacity:1"
       d="m 41.029088,75.370615 5.241602,-2.09664"
       id="path5823"
       inkscape:path-effect="#path-effect5825"
       inkscape:original-d="m 41.029088,75.370615 5.241602,-2.09664" /><path
       style="fill:none;stroke:#000000;stroke-width:0.1;stroke-linecap:butt;stroke-linejoin:miter;stroke-dasharray:0.6, 0.6;stroke-dashoffset:0;stroke-opacity:1"
       d="m 48.656522,71.791869 c -2.542214,1.217279 -5.084691,2.434293 -7.627434,3.651046"
       id="path5849" /><path
       style="fill:none;stroke:#000000;stroke-width:0.1;stroke-linecap:butt;stroke-linejoin:miter;stroke-dasharray:none;stroke-opacity:1"
       d="m 48.439628,75.370615 c 0.07932,-0.544794 0.01103,-1.110359 -0.195672,-1.62062 -0.208255,-0.514093 -0.55651,-0.970676 -0.997245,-1.307447"
       id="path5851"
       inkscape:path-effect="#path-effect5853"
       inkscape:original-d="m 48.439628,75.370615 c 0,0 -0.02405,-1.146628 -0.195672,-1.62062 -0.21167,-0.584584 -0.997245,-1.307447 -0.997245,-1.307447"
       sodipodi:nodetypes="csc" /><path
       sodipodi:type="star"
       style="fill:#000000;fill-opacity:1;fill-rule:evenodd;stroke:#000000;stroke-width:0.1;stroke-linecap:round;stroke-linejoin:bevel;stroke-dasharray:none;stroke-dashoffset:0;stroke-opacity:1;paint-order:markers fill stroke;stop-color:#000000"
       id="path5855"
       inkscape:flatsided="true"
       sodipodi:sides="3"
       sodipodi:cx="59.212025"
       sodipodi:cy="74.972977"
       sodipodi:r1="0.95504475"
       sodipodi:r2="0.47752237"
       sodipodi:arg1="2.0852476"
       sodipodi:arg2="3.1324452"
       inkscape:rounded="0"
       inkscape:randomized="0"
       d="m 58.742088,75.804403 -0.01513,-1.654117 1.440072,0.813955 z"
       inkscape:transform-center-x="-0.2349676"
       inkscape:transform-center-y="0.0043671125"
       transform="translate(3.442561,0.42890525)" /><path
       sodipodi:type="star"
       style="fill:#000000;fill-opacity:1;fill-rule:evenodd;stroke:#000000;stroke-width:0.1;stroke-linecap:round;stroke-linejoin:bevel;stroke-dasharray:none;stroke-dashoffset:0;stroke-opacity:1;paint-order:markers fill stroke;stop-color:#000000"
       id="path5855-0"
       inkscape:flatsided="true"
       sodipodi:sides="3"
       sodipodi:cx="59.212025"
       sodipodi:cy="74.972977"
       sodipodi:r1="0.95504475"
       sodipodi:r2="0.47752237"
       sodipodi:arg1="2.0852476"
       sodipodi:arg2="3.1324452"
       inkscape:rounded="0"
       inkscape:randomized="0"
       d="m 58.742088,75.804403 -0.01513,-1.654117 1.440072,0.813955 z"
       inkscape:transform-center-x="-0.0043673396"
       inkscape:transform-center-y="-0.23496767"
       transform="rotate(-90,39.035941,73.021752)" /><path
       sodipodi:type="star"
       style="fill:#008000;fill-opacity:1;fill-rule:evenodd;stroke:#008000;stroke-width:0.1;stroke-linecap:round;stroke-linejoin:bevel;stroke-dasharray:none;stroke-dashoffset:0;stroke-opacity:1;paint-order:markers fill stroke;stop-color:#000000"
       id="path5855-0-0"
       inkscape:flatsided="true"
       sodipodi:sides="3"
       sodipodi:cx="59.212025"
       sodipodi:cy="74.972977"
       sodipodi:r1="0.95504475"
       sodipodi:r2="0.47752237"
       sodipodi:arg1="2.0852476"
       sodipodi:arg2="3.1324452"
       inkscape:rounded="0"
       inkscape:randomized="0"
       d="m 58.742088,75.804403 -0.01513,-1.654117 1.440072,0.813955 z"
       inkscape:transform-center-x="-0.1434898"
       inkscape:transform-center-y="0.10346127"
       transform="rotate(108.01101,50.427903,68.233611)" /><path
       sodipodi:type="star"
       style="fill:#000000;fill-opacity:1;fill-rule:evenodd;stroke:#000000;stroke-width:0.1;stroke-linecap:round;stroke-linejoin:bevel;stroke-dasharray:none;stroke-dashoffset:0;stroke-opacity:1;paint-order:markers fill stroke;stop-color:#000000"
       id="path5855-0-7"
       inkscape:flatsided="true"
       sodipodi:sides="3"
       sodipodi:cx="59.212025"
       sodipodi:cy="74.972977"
       sodipodi:r1="0.95504475"
       sodipodi:r2="0.47752237"
       sodipodi:arg1="2.0852476"
       sodipodi:arg2="3.1324452"
       inkscape:rounded="0"
       inkscape:randomized="0"
       d="m 58.742088,75.804403 -0.01513,-1.654117 1.440072,0.813955 z"
       inkscape:transform-center-x="0.21388857"
       inkscape:transform-center-y="0.028238479"
       transform="rotate(-56.085706,40.60098,74.967984)" /><path
       fill-rule="nonzero"
       fill="#000000"
       fill-opacity="1"
       d="m 62.702185,77.155038 c 0.02163,-0.09437 0.104979,-0.426998 0.357797,-0.426998 0.01809,0 0.10498,0 0.180866,0.04719 -0.101442,0.01808 -0.173395,0.108519 -0.173395,0.19502 0,0.05819 0.03931,0.126605 0.137222,0.126605 0.07943,0 0.195019,-0.06487 0.195019,-0.209568 0,-0.187942 -0.213106,-0.238662 -0.336173,-0.238662 -0.209568,0 -0.336173,0.191874 -0.379424,0.274835 -0.09043,-0.238662 -0.285846,-0.274835 -0.390433,-0.274835 -0.375883,0 -0.581912,0.466316 -0.581912,0.556749 0,0.03617 0.03617,0.03617 0.04324,0.03617 0.0291,0 0.03972,-0.007 0.04719,-0.03971 0.122673,-0.383356 0.361337,-0.473788 0.484404,-0.473788 0.06842,0 0.195019,0.03263 0.195019,0.242201 0,0.112452 -0.06133,0.354654 -0.195019,0.860683 -0.05819,0.224115 -0.184797,0.375884 -0.343644,0.375884 -0.02163,0 -0.104587,0 -0.180864,-0.04719 0.09043,-0.01808 0.169855,-0.09397 0.169855,-0.19502 0,-0.09751 -0.07943,-0.126606 -0.133683,-0.126606 -0.108519,0 -0.198558,0.09397 -0.198558,0.209568 0,0.166318 0.180471,0.238663 0.339712,0.238663 0.238662,0 0.368807,-0.252816 0.379423,-0.274836 0.04324,0.133682 0.173787,0.274836 0.390432,0.274836 0.372346,0 0.578375,-0.466317 0.578375,-0.55675 0,-0.03617 -0.03225,-0.03617 -0.04325,-0.03617 -0.03263,0 -0.03971,0.01454 -0.04719,0.03971 -0.119135,0.386894 -0.364876,0.473787 -0.480472,0.473787 -0.141153,0 -0.198952,-0.115596 -0.198952,-0.238664 0,-0.07943 0.02163,-0.158845 0.06134,-0.318086 l 0.123066,-0.49502"
       id="path15104"
       clip-path="url(#clipPath15119)"
       style="stroke-width:0.352778" /><path
       fill-rule="nonzero"
       fill="#000000"
       fill-opacity="1"
       d="m 53.521916,59.498908 c 0.01571,-0.05437 0.01571,-0.06244 0.01571,-0.08962 0,-0.07052 -0.0548,-0.105762 -0.113403,-0.105762 -0.03907,0 -0.101089,0.02335 -0.136338,0.08239 -0.0081,0.01955 -0.03907,0.140584 -0.0548,0.210663 -0.02718,0.101506 -0.05479,0.206842 -0.07816,0.312598 l -0.175837,0.702497 c -0.01528,0.05861 -0.183482,0.332135 -0.440864,0.332135 -0.199621,0 -0.242518,-0.17159 -0.242518,-0.31642 0,-0.17966 0.06668,-0.421753 0.199195,-0.765356 0.06244,-0.160121 0.07816,-0.203018 0.07816,-0.281169 0,-0.17541 -0.124873,-0.319817 -0.320242,-0.319817 -0.370785,0 -0.515192,0.565734 -0.515192,0.600986 0,0.03907 0.03865,0.03907 0.04673,0.03907 0.03907,0 0.04289,-0.0076 0.06244,-0.07052 0.105333,-0.366963 0.261631,-0.484187 0.39457,-0.484187 0.03101,0 0.09726,0 0.09726,0.12529 0,0.09768 -0.03907,0.199198 -0.06627,0.273524 -0.156299,0.413682 -0.226379,0.636238 -0.226379,0.819718 0,0.347426 0.245917,0.464651 0.476541,0.464651 0.152053,0 0.284992,-0.06625 0.394148,-0.175412 -0.05053,0.203019 -0.0977,0.394146 -0.253562,0.600987 -0.101935,0.13294 -0.250164,0.246342 -0.429824,0.246342 -0.05437,0 -0.2302,-0.01187 -0.296457,-0.163946 0.06244,0 0.112974,0 0.167766,-0.04714 0.03907,-0.03525 0.07816,-0.08579 0.07816,-0.160121 0,-0.121047 -0.105762,-0.136762 -0.144831,-0.136762 -0.08962,0 -0.21831,0.06286 -0.21831,0.253986 0,0.195374 0.171589,0.33978 0.413683,0.33978 0.402215,0 0.804429,-0.355494 0.914009,-0.796785 l 0.374608,-1.491636"
       id="path16583"
       clip-path="url(#clipPath16598)"
       style="stroke-width:0.352776" /><path
       fill-rule="nonzero"
       fill="#000000"
       fill-opacity="1"
       d="m 37.707921,53.545717 c 0.297719,-0.31993 0.457983,-0.45798 0.656662,-0.62905 0,-0.005 0.342137,-0.29832 0.540816,-0.497 0.52401,-0.5132 0.645859,-0.77791 0.645859,-0.80012 0,-0.0552 -0.04982,-0.0552 -0.06122,-0.0552 -0.03841,0 -0.05522,0.0114 -0.08283,0.0606 -0.165066,0.26531 -0.280912,0.35355 -0.413565,0.35355 -0.132653,0 -0.19868,-0.0828 -0.281513,-0.17648 -0.104442,-0.12725 -0.198679,-0.23769 -0.380552,-0.23769 -0.414165,0 -0.668067,0.5132 -0.668067,0.62905 0,0.0276 0.0168,0.0612 0.06663,0.0612 0.04922,0 0.06062,-0.0276 0.07143,-0.0612 0.105042,-0.2533 0.42497,-0.2593 0.468788,-0.2593 0.116446,0 0.220888,0.0384 0.348139,0.0828 0.220888,0.0828 0.281512,0.0828 0.42497,0.0828 -0.19868,0.2377 -0.662665,0.63446 -0.767107,0.72269 l -0.496999,0.46399 c -0.37515,0.36975 -0.568427,0.68427 -0.568427,0.72269 0,0.0552 0.05522,0.0552 0.06663,0.0552 0.04382,0 0.05522,-0.0108 0.08823,-0.0714 0.126651,-0.19328 0.292317,-0.34214 0.468787,-0.34214 0.127251,0 0.182473,0.0492 0.320529,0.20949 0.09364,0.11585 0.192677,0.20408 0.352941,0.20408 0.546218,0 0.866746,-0.70048 0.866746,-0.84994 0,-0.0276 -0.02221,-0.0552 -0.06663,-0.0552 -0.04982,0 -0.06063,0.033 -0.07743,0.072 -0.126651,0.35834 -0.480192,0.46338 -0.662065,0.46338 -0.110444,0 -0.209484,-0.033 -0.32533,-0.0714 -0.187875,-0.072 -0.270708,-0.0942 -0.386555,-0.0942 -0.0108,0 -0.09904,0 -0.148859,0.0168"
       id="path18062"
       clip-path="url(#clipPath18077)"
       style="stroke-width:0.352778" /><path
       fill-rule="nonzero"
       fill="#000000"
       fill-opacity="1"
       d="m 43.97086,61.774515 c 0,-0.287753 -0.07869,-0.8936 -0.522887,-0.8936 -0.605847,0 -1.277113,1.229234 -1.277113,2.227127 0,0.409586 0.126573,0.8936 0.522886,0.8936 0.61438,0 1.277114,-1.25104 1.277114,-2.227127 z m -1.337794,0.59684 c 0.07395,-0.278746 0.16118,-0.627179 0.335634,-0.93674 0.117566,-0.2138 0.278746,-0.45794 0.475006,-0.45794 0.213327,0 0.2394,0.27922 0.2394,0.527627 0,0.2138 -0.03461,0.43566 -0.139373,0.867053 z m 0.87132,0.139847 c -0.04788,0.200527 -0.139373,0.570767 -0.30482,0.884593 -0.152647,0.296287 -0.318093,0.510087 -0.50582,0.510087 -0.14364,0 -0.235133,-0.126573 -0.235133,-0.531894 0,-0.182986 0.02607,-0.435659 0.139373,-0.862786 h 0.9064"
       id="path19541"
       clip-path="url(#clipPath19556)"
       style="stroke-width:0.352778" /><path
       fill-rule="nonzero"
       fill="#000000"
       fill-opacity="1"
       d="m 50.352139,72.092061 c 0,-0.0071 0.01,-0.04523 0.01,-0.04824 0,-0.0034 0,-0.03417 -0.0402,-0.03417 -0.0301,0 -0.0402,0.01005 -0.0502,0.06935 l -0.20002,0.797532 c -0.54877,0.01709 -1.05664,0.476509 -1.05664,0.945882 0,0.327757 0.24223,0.600838 0.66336,0.624859 -0.0302,0.107041 -0.0503,0.217399 -0.0804,0.32444 -0.0402,0.16222 -0.0804,0.293685 -0.0804,0.303836 0,0.03417 0.0201,0.03819 0.0402,0.03819 0.0201,0 0.0201,-0.0034 0.0302,-0.01307 0.007,-0.0071 0.0302,-0.09046 0.0402,-0.138198 l 0.13066,-0.514401 c 0.55581,-0.01709 1.05624,-0.483243 1.05624,-0.945882 0,-0.27298 -0.18292,-0.590686 -0.66235,-0.624859 z m -0.65933,2.278519 c -0.20705,-0.01005 -0.45631,-0.131464 -0.45631,-0.476509 0,-0.414194 0.29751,-0.897839 0.8111,-0.942464 z m 0.44525,-1.419003 c 0.26233,0.01407 0.45932,0.172673 0.45932,0.476509 0,0.407058 -0.2965,0.900854 -0.81411,0.942464 l 0.35579,-1.419003"
       id="path21020"
       clip-path="url(#clipPath21035)"
       style="stroke-width:0.352778" /><g
       id="g22514"
       transform="matrix(0.09640167,0,0,0.09640167,38.490503,70.690763)"
       style="stroke-width:3.65946"><path
         fill-rule="nonzero"
         fill="#000000"
         fill-opacity="1"
         d="m 16.445312,4.46875 c -0.503906,0.46875 -1.6875,1.472656 -1.6875,2.121094 0,0.359375 0.359376,0.71875 0.714844,0.71875 0.324219,0 0.503906,-0.253906 0.683594,-0.46875 0.433594,-0.539063 1.257812,-1.542969 2.839844,-2.335938 0.25,-0.140625 0.609375,-0.320312 0.609375,-0.753906 0,-0.359375 -0.25,-0.539062 -0.503907,-0.71875 C 18.3125,2.496094 17.917969,1.847656 17.628906,0.984375 17.558594,0.660156 17.414062,0.195312 16.910156,0.195312 c -0.5,0 -0.714844,0.464844 -0.714844,0.753907 0,0.179687 0.285157,1.328125 0.859376,2.082031 H 4.953125 c -0.609375,0 -1.257813,0 -1.257813,0.71875 0,0.71875 0.648438,0.71875 1.257813,0.71875 h 11.492187"
         id="path22499"
         style="stroke-width:13.3916" /><g
         clip-path="url(#clip-0-0)"
         id="g22503"
         style="stroke-width:3.65946"><path
           fill-rule="nonzero"
           fill="#000000"
           fill-opacity="1"
           d="m 9.265625,10.707031 c 0,-0.03516 0,-0.394531 -0.464844,-0.394531 -0.828125,0 -3.449219,0.289062 -4.382812,0.359375 -0.285157,0.03516 -0.683594,0.07422 -0.683594,0.71875 0,0.433594 0.324219,0.433594 0.863281,0.433594 1.722656,0 1.796875,0.25 1.796875,0.609375 l -0.109375,0.71875 -5.207031,20.6875 c -0.144531,0.5 -0.144531,0.570312 -0.144531,0.789062 0,0.824219 0.71875,1.003906 1.042968,1.003906 0.46875,0 1.003907,-0.324218 1.21875,-0.753906 C 3.375,34.554688 4.992188,27.910156 5.207031,27.011719 6.429688,27.121094 9.375,27.695312 9.375,30.066406 c 0,0.25 0,0.394532 -0.109375,0.753906 C 9.195312,31.253906 9.125,31.683594 9.125,32.078125 c 0,2.117187 1.433594,3.554687 3.300781,3.554687 1.078125,0 2.046875,-0.574218 2.839844,-1.902343 0.894531,-1.582031 1.292969,-3.554688 1.292969,-3.628907 0,-0.359374 -0.324219,-0.359374 -0.433594,-0.359374 -0.359375,0 -0.394531,0.144531 -0.5,0.648437 -0.71875,2.621094 -1.546875,4.453125 -3.125,4.453125 -0.683594,0 -1.152344,-0.394531 -1.152344,-1.6875 0,-0.613281 0.144532,-1.4375 0.289063,-2.011719 0.144531,-0.609375 0.144531,-0.753906 0.144531,-1.113281 0,-2.335938 -2.261719,-3.375 -5.316406,-3.769531 1.113281,-0.648438 2.261718,-1.796875 3.089844,-2.660157 1.722656,-1.902343 3.375,-3.449218 5.132812,-3.449218 0.21875,0 0.253906,0 0.324219,0.03906 0.433593,0.07031 0.46875,0.07031 0.753906,0.285156 0.07422,0.03516 0.07422,0.07422 0.144531,0.144532 -1.722656,0.109375 -2.046875,1.507812 -2.046875,1.9375 0,0.578125 0.394531,1.257812 1.363281,1.257812 0.933594,0 1.976563,-0.789062 1.976563,-2.1875 0,-1.078125 -0.824219,-2.265625 -2.441406,-2.265625 -1.003907,0 -2.65625,0.289063 -5.242188,3.160157 -1.222656,1.367187 -2.621093,2.800781 -3.988281,3.339843 l 3.734375,-15.15625"
           id="path22501"
           style="stroke-width:13.3916" /></g></g></g></svg>
